<svg xmlns="http://www.w3.org/2000/svg" viewBox="0 0 1804.585 185.321"><defs><style>.cls-1{fill:#f5bb52;}.cls-2{fill:#74cac5;}.cls-3{fill:#ec6a5b;}</style></defs><title>Asset 2</title><g id="Layer_2" data-name="Layer 2"><g id="Layer_1-2" data-name="Layer 1"><path class="cls-1" d="M1370.556,164.588c0-14.078,6.656-20.734,20.477-20.734s20.477,6.656,20.477,20.734-6.654,20.733-20.477,20.733S1370.556,178.666,1370.556,164.588Z"/><path class="cls-2" d="M41.835,103.161l51.691-15.4A141.262,141.262,0,0,0,70.9,75.895C45.818,65.145,38.4,58.873,38.4,48.123c0-8.958,5.887-16.382,18.174-16.382,12.03,0,19.2,7.424,19.2,18.429h37.371C113.138,18.943,89.077,0,57.081,0,22.525,0,1.024,19.2,1.024,48.635,1.024,72.923,11.9,89.2,41.835,103.161Z"/><path class="cls-3" d="M93.525,87.758l-51.691,15.4c2.4,1.121,4.914,2.228,7.567,3.322,24.317,9.984,31.484,16.639,31.484,28.156S72.7,153.581,60.153,153.581s-21.5-6.144-22.781-18.943H0c2.048,28.67,23.549,50.682,59.64,50.682s58.616-21.245,58.616-52.857C118.257,113.687,111.8,99.931,93.525,87.758Z"/><rect class="cls-1" x="169.942" y="3.073" width="132.591" height="31.227"/><rect class="cls-2" x="217.808" y="34.303" width="36.859" height="147.947"/><polygon class="cls-3" points="422.305 55.29 437.151 3.073 437.151 3.073 407.46 3.073 335.021 182.25 373.415 182.25 422.305 55.29"/><polygon class="cls-1" points="437.151 3.073 422.305 55.29 449.182 124.913 395.495 124.913 383.667 155.628 460.956 155.628 471.195 182.25 509.59 182.25 437.151 3.073"/><rect class="cls-2" x="566.394" y="3.073" width="36.858" height="179.177"/><path class="cls-3" d="M665.452,119.026c20.989-9.726,33.276-29.18,33.276-53.241,0-35.068-26.62-62.712-70.648-62.712H603.25V33.788h24.063c20.222,0,34.043,11.264,34.043,32.764s-13.821,32.764-34.043,32.764H603.25v30.717h13.056c25.085,0,41.724,17.918,44.8,47.354l.512,4.863h35.835l-.512-5.375C694.378,149.486,683.114,130.033,665.452,119.026Z"/><rect class="cls-2" x="752.97" y="3.073" width="132.591" height="31.227"/><rect class="cls-1" x="800.836" y="34.303" width="36.859" height="147.947"/><path class="cls-1" d="M1025.3,153.581h0c-19.967,0-38.4-13.311-38.4-44.8V3.073H950.044V106.482c0,54.265,34.3,78.838,75.254,78.838Z"/><path class="cls-3" d="M1063.693,3.073V108.786c0,31.484-18.428,44.795-38.394,44.795h0v31.739h0c40.955,0,75.253-24.573,75.253-78.838V3.073Z"/><rect class="cls-2" x="1177.832" y="3.073" width="36.859" height="179.177"/><path class="cls-3" d="M1236.705,3.073h-22.014V33.788h18.941c24.06,0,37.628,13.054,37.628,35.58s-13.568,35.58-37.628,35.58h-18.941v30.715h22.014c44.793,0,71.925-28.924,71.925-66.295S1281.5,3.073,1236.705,3.073Z"/><rect class="cls-3" x="1491.558" y="3.073" width="36.859" height="179.177"/><path class="cls-1" d="M1550.431,3.073h-22.014V33.788h18.941c24.06,0,37.628,13.054,37.628,35.58s-13.568,35.58-37.628,35.58h-18.941v30.715h22.014c44.793,0,71.925-28.924,71.925-66.295S1595.224,3.073,1550.431,3.073Z"/><rect class="cls-3" x="1671.994" y="3.073" width="132.591" height="31.227"/><rect class="cls-2" x="1719.86" y="34.303" width="36.859" height="147.947"/></g></g></svg>